<svg id="SvgjsSvg1102" width="288" height="288" xmlns="http://www.w3.org/2000/svg" version="1.1" xmlns:xlink="http://www.w3.org/1999/xlink" xmlns:svgjs="http://svgjs.com/svgjs"><defs id="SvgjsDefs1103"></defs><g id="SvgjsG1104"><svg xmlns="http://www.w3.org/2000/svg" data-name="Layer 2" viewBox="0 0 512 512" width="288" height="288"><path fill="#e9baf1" d="M256.11 105.89a47.44 47.44 0 1 0-47.44-47.44 47.5 47.5 0 0 0 47.44 47.44Z" class="colore199e9 svgShape"></path><path fill="#f0ccf4" d="M116.39 163.65a47.42 47.42 0 0 0 33.55-81 47.44 47.44 0 1 0-33.55 81Z" class="colorf0ccf4 svgShape"></path><path fill="#e1c5f5" d="M105.89 255.89a47.44 47.44 0 1 0-47.44 47.44 47.5 47.5 0 0 0 47.44-47.44Z" class="color2d0032 svgShape"></path><path fill="#824d88" d="M82.68 362.07a47.44 47.44 0 1 0 67.09 0 47.5 47.5 0 0 0-67.09 0Z" class="color5a0064 svgShape"></path><path fill="#994b9e" d="M255.89 406.11a47.44 47.44 0 1 0 47.44 47.44 47.5 47.5 0 0 0-47.44-47.44Z" class="color860096 svgShape"></path><path fill="#b33fc7" d="M362.07 362.23a47.5 47.5 0 0 0 0 67.09 47.44 47.44 0 1 0 0-67.09Z" class="colorb300c8 svgShape"></path><path fill="#ec87f9" d="M453.56 208.67A47.44 47.44 0 1 0 501 256.11a47.5 47.5 0 0 0-47.44-47.44Z" class="colorc233d3 svgShape"></path><path fill="#e69def" d="M395.77 163.81a47.3 47.3 0 0 0 33.55-13.87 47.5 47.5 0 1 0-33.55 13.87Z" class="colorec4dff svgShape"></path></svg></g></svg>